<?xml version="1.0" encoding="iso-8859-1"?>
<!-- Generator: Adobe Illustrator 21.0.0, SVG Export Plug-In . SVG Version: 6.00 Build 0)  -->
<svg version="1.1" xmlns="http://www.w3.org/2000/svg" xmlns:xlink="http://www.w3.org/1999/xlink" x="0px" y="0px" width="261" height="283"
	 viewBox="0 0 640.049 694" style="enable-background:new 0 0 640.049 694;" xml:space="preserve">
<g id="Layer_2">
	<rect style="fill:#FFFFFF;" width="640.049" height="694"/>
	
		<image style="display:none;overflow:visible;" width="261" height="283" xlink:href="site-logo.png"  transform="matrix(2.4523 0 0 2.4523 0 0)">
	</image>
</g>
<g id="Layer_1">
	<g>
		<g>
			<path style="fill:#7C8A91;" d="M231.629,545.284h0.719v-0.277c0-2.3-1.328-3.076-3.071-3.076c-1.383,0-2.794,0.554-3.929,1.358
				l-1.079-1.967c1.134-0.942,3.265-1.662,5.229-1.662c3.514,0,5.534,1.939,5.534,5.486v8.867h-2.518v-1.413
				c0-0.637,0.083-1.108,0.083-1.108h-0.055c-0.802,1.607-2.518,2.854-4.593,2.854c-2.435,0-4.675-1.524-4.675-4.157
				C223.274,545.783,228.724,545.284,231.629,545.284 M228.586,552.211c2.351,0,3.762-2.383,3.762-4.461v-0.526h-0.692
				c-1.992,0-5.699,0.166-5.699,2.743C225.957,551.075,226.843,552.211,228.586,552.211"/>
			<polygon style="fill:#7C8A91;" points="238.988,539.991 241.671,539.991 241.671,551.685 248.339,551.685 248.339,539.991 
				251.05,539.991 251.05,551.685 253.014,551.685 253.014,557.337 250.552,557.337 250.552,554.012 238.988,554.012 			"/>
			<path style="fill:#7C8A91;" d="M255.863,539.991h2.573v8.368c0,0.748-0.055,1.746-0.083,1.885h0.055
				c0.11-0.25,0.775-1.219,1.245-1.885l6.032-8.368h2.6v14.021h-2.6v-8.368c0-0.665,0.083-1.635,0.083-1.857h-0.055
				c-0.083,0.25-0.774,1.192-1.217,1.857l-6.059,8.368h-2.573V539.991z"/>
			<path style="fill:#7C8A91;" d="M279.019,539.66c4.178,0,7.553,3.075,7.553,7.315c0,4.267-3.375,7.37-7.525,7.37
				c-4.178,0-7.553-3.104-7.553-7.37C271.494,542.735,274.869,539.66,279.019,539.66 M279.047,552.017
				c2.628,0,4.814-2.106,4.814-5.043c0-2.91-2.185-4.988-4.814-4.988c-2.656,0-4.814,2.078-4.814,4.988
				C274.233,549.911,276.391,552.017,279.047,552.017"/>
			<polygon style="fill:#7C8A91;" points="289.808,539.991 292.492,539.991 292.492,545.7 299.575,545.7 299.575,539.991 
				302.258,539.991 302.258,554.012 299.575,554.012 299.575,547.999 292.492,547.999 292.492,554.012 289.808,554.012 			"/>
			<path style="fill:#7C8A91;" d="M313.6,545.284h0.72v-0.277c0-2.3-1.328-3.076-3.071-3.076c-1.383,0-2.794,0.554-3.929,1.358
				l-1.079-1.967c1.134-0.942,3.265-1.662,5.229-1.662c3.514,0,5.533,1.939,5.533,5.486v8.867h-2.518v-1.413
				c0-0.637,0.083-1.108,0.083-1.108h-0.055c-0.803,1.607-2.518,2.854-4.593,2.854c-2.434,0-4.675-1.524-4.675-4.157
				C305.245,545.783,310.696,545.284,313.6,545.284 M310.557,552.211c2.351,0,3.763-2.383,3.763-4.461v-0.526h-0.692
				c-1.992,0-5.699,0.166-5.699,2.743C307.929,551.075,308.815,552.211,310.557,552.211"/>
			<path style="fill:#7C8A91;" d="M319.437,551.74c2.047-0.305,3.154-2.355,3.154-7.426v-4.323h9.379v14.021h-2.683v-11.804h-4.122
				v2.106c0,6.345-1.605,9.615-5.727,9.836V551.74z"/>
			<path style="fill:#7C8A91;" d="M336.119,539.991h2.684v5.071h2.821c2.905,0,5.091,1.33,5.091,4.517
				c0,2.632-1.605,4.433-5.146,4.433h-5.45V539.991z M341.21,552.073c1.936,0,2.767-1.053,2.767-2.522
				c0-1.496-0.83-2.549-2.767-2.549h-2.407v5.071H341.21z"/>
			<polygon style="fill:#7C8A91;" points="349.593,539.991 352.276,539.991 352.276,545.7 359.358,545.7 359.358,539.991 
				362.043,539.991 362.043,554.012 359.358,554.012 359.358,547.999 352.276,547.999 352.276,554.012 349.593,554.012 			"/>
			<path style="fill:#7C8A91;" d="M373.385,545.284h0.72v-0.277c0-2.3-1.328-3.076-3.071-3.076c-1.383,0-2.794,0.554-3.928,1.358
				l-1.08-1.967c1.135-0.942,3.265-1.662,5.23-1.662c3.513,0,5.533,1.939,5.533,5.486v8.867h-2.518v-1.413
				c0-0.637,0.083-1.108,0.083-1.108h-0.054c-0.803,1.607-2.518,2.854-4.593,2.854c-2.435,0-4.676-1.524-4.676-4.157
				C365.03,545.783,370.48,545.284,373.385,545.284 M370.342,552.211c2.351,0,3.763-2.383,3.763-4.461v-0.526h-0.692
				c-1.992,0-5.7,0.166-5.7,2.743C367.713,551.075,368.599,552.211,370.342,552.211"/>
			<path style="fill:#7C8A91;" d="M382.57,549.357c0.304-0.499,0.636-0.859,0.636-0.859v-0.028c-1.604-0.444-3.043-1.94-3.043-4.073
				c0-2.882,2.047-4.406,5.007-4.406h5.589v14.021h-2.684v-5.071h-2.352l-3.43,5.071h-2.96L382.57,549.357z M388.075,546.974v-5.126
				h-2.241c-1.798,0-2.96,0.72-2.96,2.521c0,1.746,1.245,2.604,2.877,2.604H388.075z"/>
			<path style="fill:#7C8A91;" d="M211.073,578.534h0.719v-0.277c0-2.3-1.328-3.076-3.071-3.076c-1.383,0-2.794,0.554-3.929,1.358
				l-1.079-1.968c1.134-0.942,3.265-1.662,5.229-1.662c3.514,0,5.534,1.939,5.534,5.486v8.867h-2.518v-1.413
				c0-0.637,0.083-1.108,0.083-1.108h-0.055c-0.802,1.607-2.518,2.854-4.593,2.854c-2.435,0-4.675-1.524-4.675-4.157
				C202.718,579.032,208.169,578.534,211.073,578.534 M208.03,585.46c2.352,0,3.762-2.383,3.762-4.461v-0.526h-0.692
				c-1.992,0-5.699,0.166-5.699,2.743C205.401,584.324,206.287,585.46,208.03,585.46"/>
			<path style="fill:#7C8A91;" d="M225.016,572.909c1.853,0,3.929,0.638,5.257,2.05L229,576.843
				c-0.941-0.942-2.407-1.607-3.873-1.607c-2.822,0-4.869,2.133-4.869,4.987c0,2.854,2.047,5.043,4.953,5.043
				c1.549,0,3.237-0.749,4.316-1.884l1.079,1.967c-1.272,1.358-3.403,2.245-5.589,2.245c-4.426,0-7.498-3.131-7.498-7.342
				C217.519,576.095,220.617,572.909,225.016,572.909"/>
			<path style="fill:#7C8A91;" d="M239.762,572.909c1.854,0,3.929,0.638,5.257,2.05l-1.273,1.884
				c-0.941-0.942-2.407-1.607-3.873-1.607c-2.822,0-4.869,2.133-4.869,4.987c0,2.854,2.047,5.043,4.952,5.043
				c1.549,0,3.237-0.749,4.316-1.884l1.079,1.967c-1.273,1.358-3.403,2.245-5.589,2.245c-4.426,0-7.497-3.131-7.497-7.342
				C232.265,576.095,235.363,572.909,239.762,572.909"/>
			<path style="fill:#7C8A91;" d="M254.535,572.909c4.178,0,7.553,3.075,7.553,7.315c0,4.267-3.375,7.37-7.525,7.37
				c-4.178,0-7.553-3.104-7.553-7.37C247.01,575.984,250.386,572.909,254.535,572.909 M254.563,585.267
				c2.628,0,4.814-2.106,4.814-5.043c0-2.91-2.186-4.988-4.814-4.988c-2.656,0-4.814,2.078-4.814,4.988
				C249.749,583.161,251.908,585.267,254.563,585.267"/>
			<polygon style="fill:#7C8A91;" points="265.325,573.241 268.008,573.241 268.008,584.934 274.676,584.934 274.676,573.241 
				277.387,573.241 277.387,584.934 279.351,584.934 279.351,590.587 276.889,590.587 276.889,587.262 265.325,587.262 			"/>
			<path style="fill:#7C8A91;" d="M282.2,573.241h2.573v8.368c0,0.748-0.055,1.746-0.083,1.885h0.055
				c0.11-0.25,0.775-1.219,1.245-1.885l6.032-8.368h2.6v14.021h-2.6v-8.368c0-0.665,0.083-1.635,0.083-1.857h-0.055
				c-0.083,0.25-0.774,1.192-1.217,1.857l-6.059,8.368H282.2V573.241z"/>
			<path style="fill:#7C8A91;" d="M305.937,578.534h0.72v-0.277c0-2.3-1.328-3.076-3.071-3.076c-1.383,0-2.794,0.554-3.929,1.358
				l-1.079-1.968c1.134-0.942,3.265-1.662,5.229-1.662c3.513,0,5.533,1.939,5.533,5.486v8.867h-2.518v-1.413
				c0-0.637,0.083-1.108,0.083-1.108h-0.055c-0.803,1.607-2.518,2.854-4.593,2.854c-2.434,0-4.675-1.524-4.675-4.157
				C297.582,579.032,303.033,578.534,305.937,578.534 M302.894,585.46c2.352,0,3.763-2.383,3.763-4.461v-0.526h-0.692
				c-1.992,0-5.699,0.166-5.699,2.743C300.266,584.324,301.151,585.46,302.894,585.46"/>
			<polygon style="fill:#7C8A91;" points="313.296,573.241 315.98,573.241 315.98,584.934 322.647,584.934 322.647,573.241 
				325.359,573.241 325.359,584.934 327.323,584.934 327.323,590.587 324.861,590.587 324.861,587.262 313.296,587.262 			"/>
			<path style="fill:#7C8A91;" d="M330.172,573.241h2.573v8.368c0,0.748-0.055,1.746-0.083,1.885h0.055
				c0.11-0.25,0.774-1.219,1.245-1.885l6.032-8.368h2.6v14.021h-2.6v-8.368c0-0.665,0.082-1.635,0.082-1.857h-0.055
				c-0.083,0.25-0.774,1.192-1.217,1.857l-6.059,8.368h-2.573V573.241z"/>
			<path style="fill:#7C8A91;" d="M348.542,582.607c0.304-0.499,0.636-0.859,0.636-0.859v-0.028
				c-1.605-0.444-3.043-1.94-3.043-4.073c0-2.882,2.047-4.406,5.007-4.406h5.589v14.021h-2.684v-5.071h-2.351l-3.431,5.071h-2.96
				L348.542,582.607z M354.047,580.224v-5.126h-2.241c-1.798,0-2.96,0.72-2.96,2.522c0,1.746,1.245,2.604,2.878,2.604H354.047z"/>
			<polygon style="fill:#7C8A91;" points="207.255,608.79 202.386,608.79 202.386,606.491 214.808,606.491 214.808,608.79 
				209.911,608.79 209.911,620.511 207.255,620.511 			"/>
			<path style="fill:#7C8A91;" d="M217.436,606.49h2.49v1.247c0,0.582-0.083,1.053-0.083,1.053h0.056
				c0.885-1.69,2.656-2.632,4.703-2.632c3.791,0,6.142,2.992,6.142,7.342c0,4.461-2.656,7.343-6.335,7.343
				c-1.77,0-3.375-0.887-4.344-2.383h-0.055c0,0,0.11,0.499,0.11,1.219v6.373h-2.683V606.49z M223.993,618.516
				c2.214,0,4.039-1.801,4.039-4.988c0-3.048-1.632-5.015-3.956-5.015c-2.103,0-4.04,1.497-4.04,5.043
				C220.036,616.05,221.42,618.516,223.993,618.516"/>
			<path style="fill:#7C8A91;" d="M241.256,611.783h0.719v-0.277c0-2.3-1.328-3.076-3.071-3.076c-1.383,0-2.794,0.554-3.929,1.358
				l-1.079-1.968c1.134-0.942,3.265-1.662,5.229-1.662c3.514,0,5.534,1.939,5.534,5.486v8.866h-2.518v-1.413
				c0-0.637,0.083-1.108,0.083-1.108h-0.055c-0.802,1.607-2.518,2.854-4.593,2.854c-2.435,0-4.675-1.524-4.675-4.157
				C232.901,612.282,238.351,611.783,241.256,611.783 M238.213,618.71c2.352,0,3.762-2.383,3.762-4.461v-0.526h-0.692
				c-1.992,0-5.699,0.166-5.699,2.743C235.584,617.574,236.47,618.71,238.213,618.71"/>
			<polygon style="fill:#7C8A91;" points="248.615,606.49 251.298,606.49 251.298,612.199 258.381,612.199 258.381,606.49 
				261.064,606.49 261.064,620.511 258.381,620.511 258.381,614.498 251.298,614.498 251.298,620.511 248.615,620.511 			"/>
			<path style="fill:#7C8A91;" d="M271.798,606.158c1.853,0,3.929,0.637,5.257,2.05l-1.273,1.884
				c-0.941-0.942-2.407-1.607-3.873-1.607c-2.822,0-4.869,2.133-4.869,4.987c0,2.854,2.047,5.043,4.952,5.043
				c1.549,0,3.237-0.749,4.316-1.884l1.079,1.967c-1.272,1.358-3.403,2.245-5.588,2.245c-4.426,0-7.498-3.131-7.498-7.342
				C264.3,609.344,267.399,606.158,271.798,606.158"/>
			<path style="fill:#7C8A91;" d="M286.655,606.186v-5.07h2.573v5.07c4.343,0.167,7.553,2.993,7.553,7.288
				c0,4.323-3.209,7.176-7.553,7.37v5.209h-2.573v-5.209c-4.344-0.194-7.581-3.048-7.581-7.37
				C279.074,609.179,282.311,606.352,286.655,606.186 M286.655,618.599v-10.197c-2.878,0.166-4.925,2.023-4.925,5.071
				C281.73,616.493,283.777,618.405,286.655,618.599 M294.152,613.473c0-3.048-2.075-4.904-4.924-5.071v10.197
				C292.077,618.405,294.152,616.493,294.152,613.473"/>
			<path style="fill:#7C8A91;" d="M306.159,606.158c3.956,0,6.059,2.965,6.059,6.567c0,0.36-0.056,0.748-0.111,1.136h-10.181
				c0.139,3.02,2.297,4.655,4.814,4.655c1.494,0,3.016-0.637,4.122-1.635l1.134,1.967c-1.356,1.247-3.486,1.995-5.422,1.995
				c-4.399,0-7.443-3.187-7.443-7.342C299.131,609.04,302.174,606.158,306.159,606.158 M309.506,611.922
				c-0.083-2.41-1.577-3.685-3.403-3.685c-2.074,0-3.707,1.357-4.094,3.685H309.506z"/>
			<path style="fill:#7C8A91;" d="M315.454,606.49h2.49v1.247c0,0.582-0.083,1.053-0.083,1.053h0.056
				c0.885-1.69,2.656-2.632,4.703-2.632c3.79,0,6.142,2.992,6.142,7.342c0,4.461-2.656,7.343-6.336,7.343
				c-1.77,0-3.375-0.887-4.343-2.383h-0.055c0,0,0.111,0.499,0.111,1.219v6.373h-2.684V606.49z M322.011,618.516
				c2.214,0,4.039-1.801,4.039-4.988c0-3.048-1.632-5.015-3.956-5.015c-2.103,0-4.04,1.497-4.04,5.043
				C318.054,616.05,319.438,618.516,322.011,618.516"/>
			<path style="fill:#7C8A91;" d="M339.274,611.783h0.719v-0.277c0-2.3-1.328-3.076-3.071-3.076c-1.383,0-2.794,0.554-3.929,1.358
				l-1.079-1.968c1.134-0.942,3.265-1.662,5.229-1.662c3.514,0,5.534,1.939,5.534,5.486v8.866h-2.518v-1.413
				c0-0.637,0.083-1.108,0.083-1.108h-0.055c-0.802,1.607-2.518,2.854-4.593,2.854c-2.435,0-4.675-1.524-4.675-4.157
				C330.919,612.282,336.369,611.783,339.274,611.783 M336.231,618.71c2.351,0,3.762-2.383,3.762-4.461v-0.526h-0.692
				c-1.992,0-5.699,0.166-5.699,2.743C333.602,617.574,334.488,618.71,336.231,618.71"/>
			<polygon style="fill:#7C8A91;" points="356.925,608.79 352.055,608.79 352.055,606.491 364.477,606.491 364.477,608.79 
				359.58,608.79 359.58,620.511 356.925,620.511 			"/>
			<path style="fill:#7C8A91;" d="M372.749,606.158c3.956,0,6.059,2.965,6.059,6.567c0,0.36-0.056,0.748-0.111,1.136h-10.181
				c0.138,3.02,2.296,4.655,4.814,4.655c1.494,0,3.015-0.637,4.123-1.635l1.134,1.967c-1.356,1.247-3.486,1.995-5.422,1.995
				c-4.399,0-7.443-3.187-7.443-7.342C365.721,609.04,368.765,606.158,372.749,606.158 M376.096,611.922
				c-0.083-2.41-1.576-3.685-3.403-3.685c-2.075,0-3.707,1.357-4.094,3.685H376.096z"/>
			<path style="fill:#7C8A91;" d="M385.115,613.307l-4.51-6.817h3.071l2.6,4.267c0.194,0.36,0.443,0.831,0.443,0.831h0.055
				c0,0,0.277-0.471,0.471-0.831l2.6-4.267h3.071l-4.509,6.817l4.786,7.204h-3.044l-2.933-4.683
				c-0.221-0.333-0.442-0.748-0.442-0.748h-0.055c0,0-0.194,0.415-0.415,0.748l-2.933,4.683h-3.043L385.115,613.307z"/>
			<polygon style="fill:#7C8A91;" points="395.738,606.49 398.422,606.49 398.422,612.199 405.505,612.199 405.505,606.49 
				408.188,606.49 408.188,620.511 405.505,620.511 405.505,614.498 398.422,614.498 398.422,620.511 395.738,620.511 			"/>
			<path style="fill:#7C8A91;" d="M418.95,606.159c4.178,0,7.553,3.075,7.553,7.315c0,4.267-3.375,7.371-7.524,7.371
				c-4.178,0-7.554-3.104-7.554-7.371C411.424,609.234,414.8,606.159,418.95,606.159 M418.978,618.516
				c2.628,0,4.813-2.106,4.813-5.043c0-2.91-2.185-4.988-4.813-4.988c-2.656,0-4.814,2.078-4.814,4.988
				C414.164,616.41,416.322,618.516,418.978,618.516"/>
			<path style="fill:#7C8A91;" d="M427.83,618.239c2.048-0.305,3.154-2.355,3.154-7.426v-4.323h9.378v14.021h-2.684v-11.804h-4.123
				v2.106c0,6.345-1.605,9.615-5.726,9.836V618.239z"/>
			<path style="fill:#7C8A91;" d="M451.124,606.159c4.178,0,7.553,3.075,7.553,7.315c0,4.267-3.375,7.371-7.525,7.371
				c-4.177,0-7.553-3.104-7.553-7.371C443.6,609.234,446.975,606.159,451.124,606.159 M451.153,618.516
				c2.628,0,4.814-2.106,4.814-5.043c0-2.91-2.186-4.988-4.814-4.988c-2.656,0-4.814,2.078-4.814,4.988
				C446.339,616.41,448.496,618.516,451.153,618.516"/>
			<polygon style="fill:#7C8A91;" points="461.914,606.49 470.685,606.49 470.685,608.79 464.598,608.79 464.598,620.511 
				461.914,620.511 			"/>
			<path style="fill:#7C8A91;" d="M473.34,606.49h2.573v8.368c0,0.748-0.055,1.746-0.083,1.885h0.056
				c0.11-0.25,0.774-1.219,1.245-1.885l6.031-8.368h2.6v14.021h-2.6v-8.368c0-0.665,0.083-1.635,0.083-1.857h-0.055
				c-0.083,0.25-0.775,1.192-1.217,1.857l-6.059,8.368h-2.573V606.49z"/>
			<path style="fill:#7C8A91;" d="M489.884,606.491h2.573v8.368c0,0.748-0.056,1.746-0.083,1.885h0.056
				c0.111-0.25,0.775-1.219,1.245-1.885l6.031-8.368h2.6v14.021h-2.6v-8.368c0-0.665,0.083-1.635,0.083-1.856h-0.056
				c-0.082,0.25-0.775,1.192-1.217,1.856l-6.059,8.368h-2.573V606.491z M491.959,601.337v-0.416h2.157v0.388
				c0,1.22,0.969,1.829,1.936,1.829c0.969,0,1.965-0.609,1.965-1.856v-0.36h2.13v0.416c0,2.272-1.936,3.547-4.095,3.547
				C493.923,604.884,491.959,603.609,491.959,601.337"/>
			<polygon style="fill:#7C8A91;" points="204.378,534.45 207.117,534.45 207.117,543.04 217.271,543.04 217.271,534.45 
				219.982,534.45 219.982,554.012 217.271,554.012 217.271,545.423 207.117,545.423 207.117,554.012 204.378,554.012 			"/>
			<polygon style="fill:#3E484E;" points="205.316,389.897 212.09,389.897 212.09,441.802 282.032,441.802 282.032,389.897 
				288.805,389.897 288.805,500.335 282.032,500.335 282.032,448.113 212.09,448.113 212.09,500.335 205.316,500.335 			"/>
			<path style="fill:#3E484E;" d="M344.883,389.897h7.246l41.272,110.438h-7.246l-14.336-38.18h-46.785l-14.178,38.18h-7.247
				L344.883,389.897z M369.457,455.844l-16.698-44.806c-1.733-4.733-4.096-13.252-4.096-13.252h-0.315c0,0-2.363,8.519-4.096,13.252
				l-16.855,44.806H369.457z"/>
			<polygon style="fill:#3E484E;" points="419.234,396.207 378.12,396.207 378.12,389.897 467.123,389.897 467.123,396.207 
				426.008,396.207 426.008,500.335 419.234,500.335 			"/>
			<polygon style="fill:#3E484E;" points="517.058,396.207 475.944,396.207 475.944,389.897 564.947,389.897 564.947,396.207 
				523.832,396.207 523.832,500.335 517.058,500.335 			"/>
			<polygon style="fill:#ED1C25;" points="221.593,222.42 293.246,274.611 327.906,144.983 			"/>
			<polygon style="fill:#ED1C25;" points="329.09,144.121 294.043,275.192 358.268,321.972 358.268,122.869 			"/>
			<polygon style="fill:#01A4E1;" points="239.339,254.201 201.457,271.003 230.687,313.085 275.435,280.492 			"/>
			<polygon style="fill:#01A4E1;" points="138.76,182.352 138.76,297.803 200.065,270.612 			"/>
			<polygon style="fill:#01A4E1;" points="238.479,253.574 139.045,181.148 200.922,270.232 			"/>
			<polygon style="fill:#01A4E1;" points="138.76,298.811 138.76,380.043 229.943,313.628 200.6,271.383 			"/>
			<polygon style="fill:#D3DADE;" points="72.812,342.712 72.812,383.329 118.455,393.487 130.477,384.765 			"/>
			<polygon style="fill:#D3DADE;" points="72.812,426.601 117.458,394.21 72.812,384.273 			"/>
			<polygon style="fill:#D3DADE;" points="374.834,157.389 411.648,111.3 411.648,74.644 374.834,47.828 			"/>
			<polygon style="fill:#D3DADE;" points="430.905,88.669 412.569,111.624 412.569,141.011 457.667,108.162 			"/>
			<polygon style="fill:#D3DADE;" points="412.569,75.314 412.569,110.148 430.16,88.127 			"/>
			<polygon style="fill:#D3DADE;" points="374.834,168.497 411.648,141.681 411.648,112.776 374.834,158.865 			"/>
			<polygon style="fill:#D3DADE;" points="382.432,186.475 392.149,218.104 409.002,205.828 			"/>
			<polygon style="fill:#D3DADE;" points="374.834,180.941 374.834,230.716 391.362,218.677 381.191,185.571 			"/>
			<path style="fill:#D3DADE;" d="M574.938,265.974c1.481,0,1.483-2.304,0-2.304C573.458,263.67,573.455,265.974,574.938,265.974"/>
		</g>
	</g>
</g>
</svg>
