<?xml version="1.0" encoding="iso-8859-1"?>
<!-- Generator: Adobe Illustrator 21.0.0, SVG Export Plug-In . SVG Version: 6.00 Build 0)  -->
<svg version="1.1" xmlns="http://www.w3.org/2000/svg" xmlns:xlink="http://www.w3.org/1999/xlink" x="0px" y="0px" width="100" height="108"
	 viewBox="0 0 544.134 590" style="enable-background:new 0 0 544.134 590;" xml:space="preserve">
<g id="Layer_2">
	<rect style="fill:#FFFFFF;" width="544.134" height="590"/>
	
		<image style="display:none;overflow:visible;" width="261" height="283" xlink:href="site-logo.png"  transform="matrix(2.4523 0 0 2.4523 -42.0495 0)">
	</image>
</g>
<g id="Layer_1">
	<g>
		<g>
			<path style="display:none;fill:#7C8A91;" d="M189.58,545.284h0.719v-0.277c0-2.3-1.328-3.076-3.071-3.076
				c-1.383,0-2.794,0.554-3.929,1.358l-1.079-1.967c1.134-0.942,3.265-1.662,5.229-1.662c3.514,0,5.534,1.939,5.534,5.486v8.867
				h-2.518v-1.413c0-0.637,0.083-1.108,0.083-1.108h-0.055c-0.802,1.607-2.518,2.854-4.593,2.854c-2.435,0-4.675-1.524-4.675-4.157
				C181.225,545.783,186.675,545.284,189.58,545.284 M186.536,552.211c2.351,0,3.762-2.383,3.762-4.461v-0.526h-0.692
				c-1.992,0-5.699,0.166-5.699,2.743C183.908,551.075,184.793,552.211,186.536,552.211"/>
			<polygon style="display:none;fill:#7C8A91;" points="196.938,539.991 199.622,539.991 199.622,551.685 206.289,551.685 
				206.289,539.991 209.001,539.991 209.001,551.685 210.965,551.685 210.965,557.337 208.503,557.337 208.503,554.012 
				196.938,554.012 			"/>
			<path style="display:none;fill:#7C8A91;" d="M213.814,539.991h2.573v8.368c0,0.748-0.055,1.746-0.083,1.885h0.055
				c0.11-0.25,0.775-1.219,1.245-1.885l6.032-8.368h2.6v14.021h-2.6v-8.368c0-0.665,0.083-1.635,0.083-1.857h-0.055
				c-0.083,0.25-0.774,1.192-1.217,1.857l-6.059,8.368h-2.573V539.991z"/>
			<path style="display:none;fill:#7C8A91;" d="M236.969,539.66c4.178,0,7.553,3.075,7.553,7.315c0,4.267-3.375,7.37-7.525,7.37
				c-4.178,0-7.553-3.104-7.553-7.37C229.444,542.735,232.819,539.66,236.969,539.66 M236.997,552.017
				c2.628,0,4.814-2.106,4.814-5.043c0-2.91-2.185-4.988-4.814-4.988c-2.656,0-4.814,2.078-4.814,4.988
				C232.184,549.911,234.341,552.017,236.997,552.017"/>
			<polygon style="display:none;fill:#7C8A91;" points="247.759,539.991 250.442,539.991 250.442,545.7 257.525,545.7 
				257.525,539.991 260.209,539.991 260.209,554.012 257.525,554.012 257.525,547.999 250.442,547.999 250.442,554.012 
				247.759,554.012 			"/>
			<path style="display:none;fill:#7C8A91;" d="M271.551,545.284h0.72v-0.277c0-2.3-1.328-3.076-3.071-3.076
				c-1.383,0-2.794,0.554-3.929,1.358l-1.079-1.967c1.134-0.942,3.265-1.662,5.229-1.662c3.514,0,5.533,1.939,5.533,5.486v8.867
				h-2.518v-1.413c0-0.637,0.083-1.108,0.083-1.108h-0.055c-0.803,1.607-2.518,2.854-4.593,2.854c-2.434,0-4.675-1.524-4.675-4.157
				C263.196,545.783,268.646,545.284,271.551,545.284 M268.508,552.211c2.351,0,3.763-2.383,3.763-4.461v-0.526h-0.692
				c-1.992,0-5.699,0.166-5.699,2.743C265.88,551.075,266.765,552.211,268.508,552.211"/>
			<path style="display:none;fill:#7C8A91;" d="M277.388,551.74c2.047-0.305,3.154-2.355,3.154-7.426v-4.323h9.379v14.021h-2.683
				v-11.804h-4.122v2.106c0,6.345-1.605,9.615-5.727,9.836V551.74z"/>
			<path style="display:none;fill:#7C8A91;" d="M294.07,539.991h2.684v5.071h2.821c2.905,0,5.091,1.33,5.091,4.517
				c0,2.632-1.605,4.433-5.146,4.433h-5.45V539.991z M299.161,552.073c1.936,0,2.767-1.053,2.767-2.522
				c0-1.496-0.83-2.549-2.767-2.549h-2.407v5.071H299.161z"/>
			<polygon style="display:none;fill:#7C8A91;" points="307.543,539.991 310.227,539.991 310.227,545.7 317.309,545.7 
				317.309,539.991 319.993,539.991 319.993,554.012 317.309,554.012 317.309,547.999 310.227,547.999 310.227,554.012 
				307.543,554.012 			"/>
			<path style="display:none;fill:#7C8A91;" d="M331.335,545.284h0.72v-0.277c0-2.3-1.328-3.076-3.071-3.076
				c-1.383,0-2.794,0.554-3.928,1.358l-1.08-1.967c1.135-0.942,3.265-1.662,5.23-1.662c3.513,0,5.533,1.939,5.533,5.486v8.867
				h-2.518v-1.413c0-0.637,0.083-1.108,0.083-1.108h-0.054c-0.803,1.607-2.518,2.854-4.593,2.854c-2.435,0-4.676-1.524-4.676-4.157
				C322.98,545.783,328.431,545.284,331.335,545.284 M328.293,552.211c2.351,0,3.763-2.383,3.763-4.461v-0.526h-0.692
				c-1.992,0-5.7,0.166-5.7,2.743C325.664,551.075,326.55,552.211,328.293,552.211"/>
			<path style="display:none;fill:#7C8A91;" d="M340.52,549.357c0.304-0.499,0.636-0.859,0.636-0.859v-0.028
				c-1.604-0.444-3.043-1.94-3.043-4.073c0-2.882,2.047-4.406,5.007-4.406h5.589v14.021h-2.684v-5.071h-2.352l-3.43,5.071h-2.96
				L340.52,549.357z M346.026,546.974v-5.126h-2.241c-1.798,0-2.96,0.72-2.96,2.521c0,1.746,1.245,2.604,2.877,2.604H346.026z"/>
			<path style="display:none;fill:#7C8A91;" d="M169.024,578.534h0.719v-0.277c0-2.3-1.328-3.076-3.071-3.076
				c-1.383,0-2.794,0.554-3.929,1.358l-1.079-1.968c1.134-0.942,3.265-1.662,5.229-1.662c3.514,0,5.534,1.939,5.534,5.486v8.867
				h-2.518v-1.413c0-0.637,0.083-1.108,0.083-1.108h-0.055c-0.802,1.607-2.518,2.854-4.593,2.854c-2.435,0-4.675-1.524-4.675-4.157
				C160.669,579.032,166.119,578.534,169.024,578.534 M165.981,585.46c2.352,0,3.762-2.383,3.762-4.461v-0.526h-0.692
				c-1.992,0-5.699,0.166-5.699,2.743C163.352,584.324,164.237,585.46,165.981,585.46"/>
			<path style="display:none;fill:#7C8A91;" d="M182.967,572.909c1.853,0,3.929,0.638,5.257,2.05l-1.273,1.884
				c-0.941-0.942-2.407-1.607-3.873-1.607c-2.822,0-4.869,2.133-4.869,4.987c0,2.854,2.047,5.043,4.953,5.043
				c1.549,0,3.237-0.749,4.316-1.884l1.079,1.967c-1.272,1.358-3.403,2.245-5.589,2.245c-4.426,0-7.498-3.131-7.498-7.342
				C175.469,576.095,178.567,572.909,182.967,572.909"/>
			<path style="display:none;fill:#7C8A91;" d="M197.713,572.909c1.854,0,3.929,0.638,5.257,2.05l-1.273,1.884
				c-0.941-0.942-2.407-1.607-3.873-1.607c-2.822,0-4.869,2.133-4.869,4.987c0,2.854,2.047,5.043,4.952,5.043
				c1.549,0,3.237-0.749,4.316-1.884l1.079,1.967c-1.273,1.358-3.403,2.245-5.589,2.245c-4.426,0-7.497-3.131-7.497-7.342
				C190.215,576.095,193.314,572.909,197.713,572.909"/>
			<path style="display:none;fill:#7C8A91;" d="M212.486,572.909c4.178,0,7.553,3.075,7.553,7.315c0,4.267-3.375,7.37-7.525,7.37
				c-4.178,0-7.553-3.104-7.553-7.37C204.961,575.984,208.336,572.909,212.486,572.909 M212.514,585.267
				c2.628,0,4.814-2.106,4.814-5.043c0-2.91-2.186-4.988-4.814-4.988c-2.656,0-4.814,2.078-4.814,4.988
				C207.7,583.161,209.858,585.267,212.514,585.267"/>
			<polygon style="display:none;fill:#7C8A91;" points="223.276,573.241 225.959,573.241 225.959,584.934 232.626,584.934 
				232.626,573.241 235.338,573.241 235.338,584.934 237.302,584.934 237.302,590.587 234.84,590.587 234.84,587.262 
				223.276,587.262 			"/>
			<path style="display:none;fill:#7C8A91;" d="M240.151,573.241h2.573v8.368c0,0.748-0.055,1.746-0.083,1.885h0.055
				c0.11-0.25,0.775-1.219,1.245-1.885l6.032-8.368h2.6v14.021h-2.6v-8.368c0-0.665,0.083-1.635,0.083-1.857H250
				c-0.083,0.25-0.774,1.192-1.217,1.857l-6.059,8.368h-2.573V573.241z"/>
			<path style="display:none;fill:#7C8A91;" d="M263.888,578.534h0.72v-0.277c0-2.3-1.328-3.076-3.071-3.076
				c-1.383,0-2.794,0.554-3.929,1.358l-1.079-1.968c1.134-0.942,3.265-1.662,5.229-1.662c3.513,0,5.533,1.939,5.533,5.486v8.867
				h-2.518v-1.413c0-0.637,0.083-1.108,0.083-1.108h-0.055c-0.803,1.607-2.518,2.854-4.593,2.854c-2.434,0-4.675-1.524-4.675-4.157
				C255.533,579.032,260.983,578.534,263.888,578.534 M260.845,585.46c2.352,0,3.763-2.383,3.763-4.461v-0.526h-0.692
				c-1.992,0-5.699,0.166-5.699,2.743C258.217,584.324,259.102,585.46,260.845,585.46"/>
			<polygon style="display:none;fill:#7C8A91;" points="271.246,573.241 273.93,573.241 273.93,584.934 280.598,584.934 
				280.598,573.241 283.309,573.241 283.309,584.934 285.273,584.934 285.273,590.587 282.811,590.587 282.811,587.262 
				271.246,587.262 			"/>
			<path style="display:none;fill:#7C8A91;" d="M288.122,573.241h2.573v8.368c0,0.748-0.055,1.746-0.083,1.885h0.055
				c0.11-0.25,0.774-1.219,1.245-1.885l6.032-8.368h2.6v14.021h-2.6v-8.368c0-0.665,0.082-1.635,0.082-1.857h-0.055
				c-0.083,0.25-0.774,1.192-1.217,1.857l-6.059,8.368h-2.573V573.241z"/>
			<path style="display:none;fill:#7C8A91;" d="M306.492,582.607c0.304-0.499,0.636-0.859,0.636-0.859v-0.028
				c-1.605-0.444-3.043-1.94-3.043-4.073c0-2.882,2.047-4.406,5.007-4.406h5.588v14.021h-2.684v-5.071h-2.351l-3.431,5.071h-2.96
				L306.492,582.607z M311.997,580.224v-5.126h-2.241c-1.798,0-2.96,0.72-2.96,2.522c0,1.746,1.245,2.604,2.878,2.604H311.997z"/>
			<polygon style="display:none;fill:#7C8A91;" points="165.206,608.79 160.337,608.79 160.337,606.491 172.759,606.491 
				172.759,608.79 167.861,608.79 167.861,620.511 165.206,620.511 			"/>
			<path style="display:none;fill:#7C8A91;" d="M175.386,606.49h2.49v1.247c0,0.582-0.083,1.053-0.083,1.053h0.056
				c0.885-1.69,2.656-2.632,4.703-2.632c3.791,0,6.142,2.992,6.142,7.342c0,4.461-2.656,7.343-6.335,7.343
				c-1.77,0-3.375-0.887-4.344-2.383h-0.055c0,0,0.11,0.499,0.11,1.219v6.373h-2.683V606.49z M181.943,618.516
				c2.214,0,4.039-1.801,4.039-4.988c0-3.048-1.632-5.015-3.956-5.015c-2.103,0-4.04,1.497-4.04,5.043
				C177.987,616.05,179.37,618.516,181.943,618.516"/>
			<path style="display:none;fill:#7C8A91;" d="M199.207,611.783h0.719v-0.277c0-2.3-1.328-3.076-3.071-3.076
				c-1.383,0-2.794,0.554-3.929,1.358l-1.079-1.968c1.134-0.942,3.265-1.662,5.229-1.662c3.514,0,5.534,1.939,5.534,5.486v8.866
				h-2.518v-1.413c0-0.637,0.083-1.108,0.083-1.108h-0.055c-0.802,1.607-2.518,2.854-4.593,2.854c-2.435,0-4.675-1.524-4.675-4.157
				C190.852,612.282,196.302,611.783,199.207,611.783 M196.163,618.71c2.352,0,3.762-2.383,3.762-4.461v-0.526h-0.692
				c-1.992,0-5.699,0.166-5.699,2.743C193.535,617.574,194.42,618.71,196.163,618.71"/>
			<polygon style="display:none;fill:#7C8A91;" points="206.565,606.49 209.248,606.49 209.248,612.199 216.331,612.199 
				216.331,606.49 219.015,606.49 219.015,620.511 216.331,620.511 216.331,614.498 209.248,614.498 209.248,620.511 
				206.565,620.511 			"/>
			<path style="display:none;fill:#7C8A91;" d="M229.749,606.158c1.853,0,3.929,0.637,5.257,2.05l-1.273,1.884
				c-0.941-0.942-2.407-1.607-3.873-1.607c-2.822,0-4.869,2.133-4.869,4.987c0,2.854,2.047,5.043,4.952,5.043
				c1.549,0,3.237-0.749,4.316-1.884l1.079,1.967c-1.272,1.358-3.403,2.245-5.588,2.245c-4.426,0-7.498-3.131-7.498-7.342
				C222.251,609.344,225.349,606.158,229.749,606.158"/>
			<path style="display:none;fill:#7C8A91;" d="M244.605,606.186v-5.07h2.573v5.07c4.343,0.167,7.553,2.993,7.553,7.288
				c0,4.323-3.209,7.176-7.553,7.37v5.209h-2.573v-5.209c-4.344-0.194-7.581-3.048-7.581-7.37
				C237.024,609.179,240.262,606.352,244.605,606.186 M244.605,618.599v-10.197c-2.878,0.166-4.925,2.023-4.925,5.071
				C239.68,616.493,241.728,618.405,244.605,618.599 M252.103,613.473c0-3.048-2.075-4.904-4.924-5.071v10.197
				C250.028,618.405,252.103,616.493,252.103,613.473"/>
			<path style="display:none;fill:#7C8A91;" d="M264.109,606.158c3.956,0,6.059,2.965,6.059,6.567c0,0.36-0.056,0.748-0.111,1.136
				h-10.181c0.139,3.02,2.297,4.655,4.814,4.655c1.494,0,3.016-0.637,4.122-1.635l1.134,1.967c-1.356,1.247-3.486,1.995-5.422,1.995
				c-4.399,0-7.443-3.187-7.443-7.342C257.082,609.04,260.125,606.158,264.109,606.158 M267.457,611.922
				c-0.083-2.41-1.577-3.685-3.403-3.685c-2.074,0-3.707,1.357-4.094,3.685H267.457z"/>
			<path style="display:none;fill:#7C8A91;" d="M273.404,606.49h2.49v1.247c0,0.582-0.083,1.053-0.083,1.053h0.056
				c0.885-1.69,2.656-2.632,4.703-2.632c3.791,0,6.142,2.992,6.142,7.342c0,4.461-2.656,7.343-6.336,7.343
				c-1.77,0-3.375-0.887-4.343-2.383h-0.055c0,0,0.111,0.499,0.111,1.219v6.373h-2.684V606.49z M279.962,618.516
				c2.214,0,4.039-1.801,4.039-4.988c0-3.048-1.632-5.015-3.956-5.015c-2.103,0-4.04,1.497-4.04,5.043
				C276.005,616.05,277.388,618.516,279.962,618.516"/>
			<path style="display:none;fill:#7C8A91;" d="M297.225,611.783h0.719v-0.277c0-2.3-1.328-3.076-3.071-3.076
				c-1.383,0-2.794,0.554-3.929,1.358l-1.079-1.968c1.134-0.942,3.265-1.662,5.229-1.662c3.514,0,5.534,1.939,5.534,5.486v8.866
				h-2.518v-1.413c0-0.637,0.083-1.108,0.083-1.108h-0.055c-0.802,1.607-2.518,2.854-4.593,2.854c-2.435,0-4.675-1.524-4.675-4.157
				C288.87,612.282,294.32,611.783,297.225,611.783 M294.181,618.71c2.351,0,3.762-2.383,3.762-4.461v-0.526h-0.692
				c-1.992,0-5.699,0.166-5.699,2.743C291.553,617.574,292.438,618.71,294.181,618.71"/>
			<polygon style="display:none;fill:#7C8A91;" points="314.875,608.79 310.006,608.79 310.006,606.491 322.428,606.491 
				322.428,608.79 317.531,608.79 317.531,620.511 314.875,620.511 			"/>
			<path style="display:none;fill:#7C8A91;" d="M330.7,606.158c3.956,0,6.059,2.965,6.059,6.567c0,0.36-0.056,0.748-0.111,1.136
				h-10.181c0.138,3.02,2.296,4.655,4.814,4.655c1.494,0,3.015-0.637,4.123-1.635l1.134,1.967c-1.356,1.247-3.486,1.995-5.422,1.995
				c-4.399,0-7.443-3.187-7.443-7.342C323.672,609.04,326.715,606.158,330.7,606.158 M334.047,611.922
				c-0.083-2.41-1.576-3.685-3.403-3.685c-2.075,0-3.707,1.357-4.094,3.685H334.047z"/>
			<path style="display:none;fill:#7C8A91;" d="M343.066,613.307l-4.51-6.817h3.071l2.6,4.267c0.194,0.36,0.443,0.831,0.443,0.831
				h0.055c0,0,0.277-0.471,0.471-0.831l2.6-4.267h3.071l-4.509,6.817l4.786,7.204h-3.044l-2.933-4.683
				c-0.221-0.333-0.442-0.748-0.442-0.748h-0.055c0,0-0.194,0.415-0.415,0.748l-2.933,4.683h-3.043L343.066,613.307z"/>
			<polygon style="display:none;fill:#7C8A91;" points="353.689,606.49 356.372,606.49 356.372,612.199 363.455,612.199 
				363.455,606.49 366.139,606.49 366.139,620.511 363.455,620.511 363.455,614.498 356.372,614.498 356.372,620.511 
				353.689,620.511 			"/>
			<path style="display:none;fill:#7C8A91;" d="M376.9,606.159c4.178,0,7.553,3.075,7.553,7.315c0,4.267-3.375,7.371-7.524,7.371
				c-4.178,0-7.554-3.104-7.554-7.371C369.375,609.234,372.751,606.159,376.9,606.159 M376.928,618.516
				c2.628,0,4.813-2.106,4.813-5.043c0-2.91-2.185-4.988-4.813-4.988c-2.656,0-4.814,2.078-4.814,4.988
				C372.114,616.41,374.272,618.516,376.928,618.516"/>
			<path style="display:none;fill:#7C8A91;" d="M385.781,618.239c2.048-0.305,3.154-2.355,3.154-7.426v-4.323h9.378v14.021h-2.684
				v-11.804h-4.123v2.106c0,6.345-1.605,9.615-5.726,9.836V618.239z"/>
			<path style="display:none;fill:#7C8A91;" d="M409.075,606.159c4.178,0,7.553,3.075,7.553,7.315c0,4.267-3.375,7.371-7.525,7.371
				c-4.177,0-7.553-3.104-7.553-7.371C401.55,609.234,404.926,606.159,409.075,606.159 M409.103,618.516
				c2.628,0,4.814-2.106,4.814-5.043c0-2.91-2.186-4.988-4.814-4.988c-2.656,0-4.814,2.078-4.814,4.988
				C404.289,616.41,406.447,618.516,409.103,618.516"/>
			<polygon style="display:none;fill:#7C8A91;" points="419.864,606.49 428.635,606.49 428.635,608.79 422.548,608.79 
				422.548,620.511 419.864,620.511 			"/>
			<path style="display:none;fill:#7C8A91;" d="M431.29,606.49h2.573v8.368c0,0.748-0.055,1.746-0.083,1.885h0.056
				c0.11-0.25,0.774-1.219,1.245-1.885l6.031-8.368h2.6v14.021h-2.6v-8.368c0-0.665,0.083-1.635,0.083-1.857h-0.055
				c-0.083,0.25-0.775,1.192-1.217,1.857l-6.059,8.368h-2.573V606.49z"/>
			<path style="display:none;fill:#7C8A91;" d="M447.834,606.491h2.573v8.368c0,0.748-0.056,1.746-0.083,1.885h0.056
				c0.111-0.25,0.775-1.219,1.245-1.885l6.031-8.368h2.6v14.021h-2.6v-8.368c0-0.665,0.083-1.635,0.083-1.856h-0.056
				c-0.082,0.25-0.775,1.192-1.217,1.856l-6.059,8.368h-2.573V606.491z M449.909,601.337v-0.416h2.157v0.388
				c0,1.22,0.969,1.829,1.936,1.829c0.969,0,1.965-0.609,1.965-1.856v-0.36h2.13v0.416c0,2.272-1.936,3.547-4.095,3.547
				C451.873,604.884,449.909,603.609,449.909,601.337"/>
			<polygon style="display:none;fill:#7C8A91;" points="162.329,534.45 165.067,534.45 165.067,543.04 175.221,543.04 
				175.221,534.45 177.932,534.45 177.932,554.012 175.221,554.012 175.221,545.423 165.067,545.423 165.067,554.012 
				162.329,554.012 			"/>
			<polygon style="fill:#3E484E;" points="163.266,389.897 170.04,389.897 170.04,441.802 239.982,441.802 239.982,389.897 
				246.756,389.897 246.756,500.335 239.982,500.335 239.982,448.113 170.04,448.113 170.04,500.335 163.266,500.335 			"/>
			<path style="fill:#3E484E;" d="M302.833,389.897h7.246l41.272,110.438h-7.246l-14.336-38.18h-46.785l-14.178,38.18h-7.247
				L302.833,389.897z M327.407,455.844l-16.698-44.806c-1.733-4.733-4.096-13.252-4.096-13.252h-0.315c0,0-2.363,8.519-4.096,13.252
				l-16.855,44.806H327.407z"/>
			<polygon style="fill:#3E484E;" points="377.185,396.207 336.07,396.207 336.07,389.897 425.073,389.897 425.073,396.207 
				383.959,396.207 383.959,500.335 377.185,500.335 			"/>
			<polygon style="fill:#3E484E;" points="475.009,396.207 433.894,396.207 433.894,389.897 522.897,389.897 522.897,396.207 
				481.783,396.207 481.783,500.335 475.009,500.335 			"/>
			<polygon style="fill:#ED1C25;" points="179.544,222.42 251.196,274.611 285.857,144.983 			"/>
			<polygon style="fill:#ED1C25;" points="287.041,144.121 251.994,275.192 316.218,321.972 316.218,122.869 			"/>
			<polygon style="fill:#01A4E1;" points="197.29,254.201 159.408,271.003 188.638,313.085 233.385,280.492 			"/>
			<polygon style="fill:#01A4E1;" points="96.711,182.352 96.711,297.803 158.015,270.612 			"/>
			<polygon style="fill:#01A4E1;" points="196.429,253.574 96.995,181.148 158.872,270.232 			"/>
			<polygon style="fill:#01A4E1;" points="96.711,298.811 96.711,380.043 187.893,313.628 158.551,271.383 			"/>
			<polygon style="fill:#D3DADE;" points="30.763,342.712 30.763,383.329 76.405,393.487 88.428,384.765 			"/>
			<polygon style="fill:#D3DADE;" points="30.763,426.601 75.409,394.21 30.763,384.273 			"/>
			<polygon style="fill:#D3DADE;" points="332.784,157.389 369.599,111.3 369.599,74.644 332.784,47.828 			"/>
			<polygon style="fill:#D3DADE;" points="388.855,88.669 370.52,111.624 370.52,141.011 415.618,108.162 			"/>
			<polygon style="fill:#D3DADE;" points="370.52,75.314 370.52,110.148 388.11,88.127 			"/>
			<polygon style="fill:#D3DADE;" points="332.784,168.497 369.599,141.681 369.599,112.776 332.784,158.865 			"/>
			<polygon style="fill:#D3DADE;" points="340.382,186.475 350.099,218.104 366.953,205.828 			"/>
			<polygon style="fill:#D3DADE;" points="332.784,180.941 332.784,230.716 349.313,218.677 339.141,185.571 			"/>
			<path style="display:none;fill:#D3DADE;" d="M532.889,265.974c1.481,0,1.483-2.304,0-2.304
				C531.408,263.67,531.406,265.974,532.889,265.974"/>
		</g>
	</g>
</g>
</svg>
